<svg xmlns="http://www.w3.org/2000/svg" xmlns:xlink="http://www.w3.org/1999/xlink" width="500" zoomAndPan="magnify" viewBox="0 0 375 374.999991" height="500" preserveAspectRatio="xMidYMid meet" version="1.0"><defs><g/><clipPath id="67d91a3172"><path d="M 187.5 29 L 282.75 29 L 282.75 146.582031 L 187.5 146.582031 Z M 187.5 29 " clip-rule="nonzero"/></clipPath><clipPath id="04820b3ad7"><path d="M 112.5 150.796875 L 262.5 150.796875 L 262.5 258.046875 L 112.5 258.046875 Z M 112.5 150.796875 " clip-rule="nonzero"/></clipPath><clipPath id="adccc7c7cc"><rect x="0" width="236" y="0" height="158"/></clipPath></defs><rect x="-37.5" width="450" fill="#ffffff" y="-37.499999" height="449.999989" fill-opacity="1"/><rect x="-37.5" width="450" fill="#ffffff" y="-37.499999" height="449.999989" fill-opacity="1"/><g clip-path="url(#67d91a3172)"><path fill="#000000" d="M 252.660156 29.113281 C 253.210938 29.113281 253.765625 29.113281 254.316406 29.113281 C 254.316406 29.207031 254.316406 29.300781 254.316406 29.390625 C 255.59375 29.988281 255.941406 32.503906 255.699219 35.46875 C 255.320312 40.105469 252.835938 46.019531 252.386719 52.316406 C 251.867188 59.578125 254.128906 66.808594 252.105469 72.199219 C 249.9375 77.992188 245.71875 81.417969 245.203125 86.5625 C 244.648438 92.132812 247.644531 101.5 251.554688 104.792969 C 253.464844 106.398438 257.671875 107.042969 260.667969 106.449219 C 263.722656 105.84375 264.941406 102.488281 268.953125 102.582031 C 271.382812 102.640625 273.519531 104.777344 275.855469 105.898438 C 278.296875 107.066406 280.5 107.96875 282.757812 109.210938 C 278.660156 110.59375 272.898438 111.96875 270.613281 115.5625 C 269.324219 117.582031 269.183594 120.859375 267.570312 122.746094 C 265.65625 124.992188 261.5 127.117188 258.183594 128.820312 C 248.855469 133.609375 236.429688 134.148438 225.601562 129.097656 C 217.917969 135.59375 212.960938 146.28125 199.644531 146.21875 C 199.234375 144.011719 202.605469 142.804688 201.578125 141.804688 C 198.039062 142.246094 192.171875 144.90625 189.152344 142.355469 C 189.644531 139.253906 192.414062 138.4375 194.121094 136.554688 C 192.9375 136.761719 190.527344 137.1875 189.425781 136.554688 C 190.65625 133.335938 194.011719 131.558594 196.882812 129.925781 C 205.625 124.957031 216.375 121.472656 225.601562 116.945312 C 219.535156 113.074219 204.167969 107.421875 207.925781 96.230469 C 201.496094 92.804688 195.855469 87.144531 197.15625 76.898438 C 194.433594 73.277344 190.226562 70.121094 190.253906 65.019531 C 190.265625 63.765625 191.402344 62.382812 191.363281 61.15625 C 191.308594 59.648438 189.710938 57.511719 189.152344 55.90625 C 188.492188 54.015625 188.066406 52.339844 187.496094 50.382812 C 187.496094 49.003906 187.496094 47.621094 187.496094 46.242188 C 189.214844 42.011719 191.96875 47.371094 193.570312 50.105469 C 199.808594 60.777344 205.8125 70.105469 214.28125 78.003906 C 216.886719 80.4375 219.492188 82.390625 222.289062 84.632812 C 222.894531 85.117188 223.421875 86.539062 224.496094 86.011719 C 224.367188 79.457031 224.746094 74.074219 226.703125 69.164062 C 227.910156 66.140625 230.601562 63.65625 231.125 61.152344 C 231.4375 59.65625 230.984375 58.25 231.125 56.734375 C 231.855469 48.878906 236.03125 44.105469 242.445312 41.269531 C 242.859375 37.078125 245.105469 34.722656 248.792969 33.808594 C 249.753906 31.917969 251.046875 30.351562 252.660156 29.113281 Z M 203.785156 143.734375 C 207.699219 143.609375 210.445312 140.660156 212.898438 138.488281 C 220.710938 131.566406 227.289062 124.035156 236.644531 118.875 C 233.832031 122.136719 230.113281 124.496094 227.535156 127.992188 C 233.105469 129.859375 238.535156 131.445312 244.375 131.304688 C 250.277344 131.160156 261.28125 125.980469 264.535156 123.019531 C 267.265625 120.535156 267.25 116.480469 269.226562 113.628906 C 271.140625 110.875 275.761719 110.054688 278.617188 108.65625 C 273.871094 108.859375 272.757812 104.285156 268.675781 104.515625 C 266.953125 104.613281 265.738281 106.332031 264.257812 107 C 252.292969 112.398438 244.085938 101.632812 242.996094 91.808594 C 241.632812 79.5 250.6875 76.996094 251.554688 66.398438 C 251.953125 61.574219 250.269531 57.054688 250.453125 52.589844 C 250.75 45.234375 255.046875 38.679688 253.210938 31.046875 C 249.867188 31.167969 250.128906 35.316406 249.347656 37.675781 C 248.410156 40.507812 247.148438 43.078125 246.035156 45.132812 C 246.785156 41.929688 247.667969 38.851562 248.242188 35.46875 C 244.988281 36.101562 245.0625 40.679688 244.101562 44.027344 C 243.070312 47.613281 241.828125 51.390625 240.785156 54.246094 C 241.214844 50.714844 241.714844 47.261719 242.167969 43.753906 C 229.117188 47.394531 233.683594 69.070312 232.503906 83.800781 C 230.585938 78.722656 231.519531 70.792969 230.84375 64.464844 C 224.902344 72.335938 225.773438 89.660156 228.082031 99.820312 C 227.644531 97.871094 226.757812 96.363281 226.429688 94.296875 C 215.53125 94.207031 227.789062 107.574219 228.363281 110.589844 C 226.386719 107.269531 220.324219 102.59375 220.078125 97.332031 C 219.96875 94.941406 221.117188 92.015625 224.773438 92.085938 C 224.773438 91.164062 224.773438 90.246094 224.773438 89.324219 C 214.050781 81.210938 203.535156 71.207031 196.882812 59.21875 C 194.691406 55.269531 193.085938 50.515625 189.148438 48.171875 C 190.351562 57.097656 194.429688 64.621094 197.433594 70.820312 C 195.898438 68.398438 194.441406 65.898438 192.742188 63.640625 C 192.957031 72.355469 200.949219 77.152344 204.0625 82.972656 C 202.132812 81.496094 200.886719 79.335938 198.539062 78.277344 C 198.390625 92.417969 211.136719 95.136719 218.140625 101.199219 C 215.367188 99.742188 212.460938 98.414062 209.582031 97.058594 C 208.398438 100.226562 209.191406 103.171875 210.410156 104.792969 C 214.339844 110.011719 224.371094 113.507812 229.1875 117.21875 C 219.789062 121.425781 209.84375 125.9375 200.75 130.199219 C 197.664062 131.648438 193.976562 132.660156 191.914062 135.449219 C 197.84375 135.214844 202.410156 132.140625 207.097656 131.582031 C 201.601562 134.371094 195.484375 136.539062 191.914062 141.25 C 200.816406 142.695312 206.363281 136.929688 212.347656 135.449219 C 209.253906 137.96875 205.574219 139.90625 203.785156 143.734375 Z M 203.785156 143.734375 " fill-opacity="1" fill-rule="evenodd"/></g><g clip-path="url(#04820b3ad7)"><path fill="#000000" d="M 253.890625 150.796875 C 252.9375 150.796875 251.988281 150.796875 251.035156 150.796875 L 121.941406 150.796875 C 117.773438 150.796875 113.84375 153.183594 112.890625 157.472656 C 112.652344 159.257812 112.535156 161.046875 112.652344 162.835938 L 112.652344 246.132812 C 112.535156 248.15625 112.652344 250.183594 113.128906 252.089844 C 114.4375 256.023438 118.132812 258.046875 122.0625 258.046875 L 253.890625 258.046875 C 254.128906 258.046875 254.367188 257.929688 254.605469 257.808594 C 259.371094 257.332031 262.464844 253.402344 262.464844 248.515625 L 262.464844 160.09375 C 262.464844 155.089844 259.011719 150.917969 253.890625 150.796875 Z M 115.628906 159.378906 C 115.75 155.683594 118.605469 153.660156 122.0625 153.660156 L 241.507812 153.660156 C 245.554688 153.660156 249.722656 153.539062 253.773438 153.660156 C 257.34375 153.777344 259.609375 156.519531 259.609375 159.972656 L 259.609375 170.34375 L 132.183594 170.34375 C 126.585938 170.34375 121.109375 170.105469 115.628906 170.34375 C 115.511719 166.765625 115.511719 163.074219 115.628906 159.378906 Z M 259.488281 249.230469 C 259.488281 252.328125 256.988281 254.832031 253.773438 254.949219 C 253.652344 254.949219 253.535156 254.949219 253.535156 254.949219 L 122.65625 254.949219 C 120.15625 254.949219 117.65625 254.59375 116.34375 252.089844 C 115.390625 250.304688 115.628906 248.277344 115.628906 246.25 L 115.628906 174.632812 C 115.628906 174.273438 115.628906 173.796875 115.628906 173.441406 L 242.9375 173.441406 C 248.53125 173.441406 254.011719 173.679688 259.488281 173.441406 L 259.488281 248.039062 C 259.488281 248.394531 259.488281 248.871094 259.488281 249.230469 Z M 259.488281 249.230469 " fill-opacity="1" fill-rule="nonzero"/></g><path fill="#000000" d="M 125.632812 163.429688 C 125.632812 163.3125 125.515625 163.3125 125.632812 163.429688 Z M 125.632812 163.429688 " fill-opacity="1" fill-rule="nonzero"/><path fill="#000000" d="M 131.46875 166.171875 C 132.300781 165.21875 132.660156 164.144531 132.660156 162.835938 C 132.660156 162.597656 132.660156 162.476562 132.660156 162.238281 C 132.421875 160.332031 131.113281 158.78125 129.324219 158.066406 C 127.417969 157.351562 125.15625 157.949219 123.847656 159.496094 C 122.0625 161.644531 122.300781 164.742188 124.324219 166.648438 C 126.46875 168.433594 129.5625 168.195312 131.46875 166.171875 Z M 129.683594 162.476562 C 129.683594 162.476562 129.683594 162.597656 129.683594 162.476562 C 129.683594 162.597656 129.683594 162.597656 129.683594 162.597656 C 129.683594 162.597656 129.683594 162.597656 129.683594 162.476562 Z M 125.515625 162.476562 C 125.515625 162.359375 125.515625 162.359375 125.515625 162.238281 C 125.515625 162.121094 125.632812 162 125.632812 161.761719 L 125.753906 161.523438 L 125.871094 161.285156 C 125.992188 161.167969 126.109375 161.046875 126.230469 160.929688 L 126.347656 160.929688 C 126.230469 161.046875 126.347656 160.929688 126.46875 160.929688 C 126.585938 160.808594 126.824219 160.808594 126.945312 160.691406 C 126.945312 160.691406 126.585938 160.808594 126.824219 160.691406 L 127.0625 160.570312 L 127.300781 160.570312 C 127.300781 160.570312 127.300781 160.570312 127.417969 160.570312 C 127.417969 160.570312 127.539062 160.570312 127.539062 160.570312 L 127.894531 160.570312 L 128.492188 160.691406 C 128.730469 160.808594 128.730469 160.808594 128.730469 160.808594 L 128.847656 160.929688 L 128.96875 161.046875 C 128.847656 160.929688 128.730469 160.929688 128.847656 161.046875 L 129.207031 161.40625 C 129.207031 161.523438 129.324219 161.523438 129.324219 161.644531 L 129.445312 161.882812 C 129.445312 162 129.445312 162.121094 129.5625 162.121094 C 129.5625 162.238281 129.445312 162.359375 129.445312 162.476562 C 129.445312 162.597656 129.445312 162.597656 129.445312 162.714844 C 129.445312 162.835938 129.324219 163.074219 129.324219 163.191406 C 129.324219 163.191406 129.324219 163.3125 129.324219 163.3125 C 129.324219 163.3125 129.324219 163.3125 129.324219 163.429688 C 129.207031 163.550781 129.085938 163.789062 129.085938 163.90625 C 129.085938 163.90625 128.96875 164.027344 128.96875 164.027344 C 128.96875 164.027344 128.847656 164.144531 128.847656 164.144531 L 128.730469 164.144531 C 128.609375 164.265625 128.609375 164.265625 128.730469 164.144531 C 128.609375 164.265625 128.492188 164.265625 128.492188 164.382812 L 128.371094 164.503906 L 127.777344 164.742188 C 127.65625 164.742188 127.65625 164.742188 127.539062 164.742188 L 127.0625 164.742188 C 126.945312 164.742188 126.824219 164.742188 126.824219 164.621094 L 126.585938 164.503906 C 126.347656 164.382812 126.707031 164.503906 126.707031 164.503906 C 126.707031 164.503906 126.347656 164.265625 126.347656 164.265625 L 126.109375 164.144531 C 126.109375 164.144531 125.753906 163.789062 125.753906 163.789062 L 125.632812 163.667969 L 125.632812 163.429688 C 125.632812 163.429688 125.632812 163.550781 125.632812 163.550781 C 125.632812 163.550781 125.515625 163.191406 125.515625 163.074219 Z M 125.515625 162.476562 " fill-opacity="1" fill-rule="nonzero"/><path fill="#000000" d="M 143.378906 165.933594 C 144.09375 165.097656 144.449219 164.027344 144.570312 162.953125 C 144.570312 162.835938 144.570312 162.835938 144.570312 162.714844 C 144.570312 162.714844 144.570312 162.597656 144.570312 162.597656 C 144.570312 160.453125 143.257812 158.542969 141.234375 157.828125 C 139.328125 157.113281 137.066406 157.710938 135.757812 159.257812 C 133.96875 161.40625 134.207031 164.503906 136.230469 166.410156 C 138.375 168.316406 141.472656 168.078125 143.378906 165.933594 Z M 137.542969 162.476562 C 137.542969 162.359375 137.542969 162.359375 137.542969 162.238281 C 137.542969 162.121094 137.660156 162 137.660156 161.761719 L 137.78125 161.523438 L 137.898438 161.285156 C 138.019531 161.167969 138.136719 161.046875 138.257812 160.929688 L 138.375 160.929688 C 138.375 160.929688 138.375 160.929688 138.496094 160.929688 C 138.613281 160.808594 138.851562 160.808594 138.972656 160.691406 C 138.972656 160.691406 138.613281 160.808594 138.851562 160.691406 L 139.089844 160.570312 L 139.328125 160.570312 C 139.328125 160.570312 139.328125 160.570312 139.449219 160.570312 C 139.449219 160.570312 139.566406 160.570312 139.566406 160.570312 L 139.804688 160.570312 L 140.402344 160.691406 C 140.636719 160.808594 140.636719 160.808594 140.636719 160.808594 C 140.636719 160.808594 140.757812 160.808594 140.757812 160.929688 C 140.757812 160.929688 140.757812 160.929688 140.875 161.046875 L 141.234375 161.40625 C 141.234375 161.523438 141.351562 161.523438 141.351562 161.644531 L 141.472656 161.882812 C 141.589844 162.121094 141.589844 162.238281 141.589844 162.359375 C 141.589844 162.359375 141.589844 162.359375 141.589844 162.476562 C 141.589844 162.476562 141.589844 162.476562 141.589844 162.597656 C 141.589844 162.714844 141.589844 162.714844 141.589844 162.835938 C 141.589844 162.953125 141.472656 163.191406 141.472656 163.3125 C 141.472656 163.3125 141.472656 163.429688 141.472656 163.429688 C 141.472656 163.429688 141.472656 163.429688 141.472656 163.550781 L 141.234375 164.027344 C 141.234375 164.027344 141.113281 164.144531 141.113281 164.144531 L 140.996094 164.265625 C 140.875 164.382812 140.875 164.382812 140.996094 164.265625 C 140.875 164.382812 140.757812 164.382812 140.757812 164.503906 L 140.636719 164.621094 L 139.925781 164.742188 C 139.804688 164.742188 139.804688 164.742188 139.6875 164.742188 L 138.851562 164.742188 L 138.613281 164.621094 C 138.375 164.503906 138.734375 164.621094 138.734375 164.621094 C 138.734375 164.621094 138.375 164.382812 138.375 164.382812 C 138.375 164.382812 138.257812 164.265625 138.136719 164.265625 C 138.136719 164.265625 137.78125 163.90625 137.78125 163.90625 L 137.660156 163.789062 L 137.78125 163.667969 L 137.78125 163.550781 C 137.78125 163.429688 137.660156 163.429688 137.78125 163.550781 C 137.78125 163.429688 137.660156 163.3125 137.660156 163.191406 C 137.660156 163.191406 137.660156 163.074219 137.660156 162.953125 C 137.542969 162.835938 137.542969 162.597656 137.542969 162.476562 Z M 137.542969 162.476562 " fill-opacity="1" fill-rule="nonzero"/><path fill="#000000" d="M 137.542969 162.476562 C 137.660156 162.121094 137.542969 162.359375 137.542969 162.476562 Z M 137.542969 162.476562 " fill-opacity="1" fill-rule="nonzero"/><path fill="#000000" d="M 155.644531 166.171875 C 156.476562 165.21875 156.835938 164.144531 156.835938 162.835938 C 156.835938 162.597656 156.835938 162.476562 156.835938 162.238281 C 156.476562 160.332031 155.285156 158.78125 153.5 158.066406 C 151.59375 157.351562 149.332031 157.949219 148.023438 159.496094 C 146.234375 161.644531 146.472656 164.742188 148.5 166.648438 C 150.523438 168.554688 153.738281 168.195312 155.644531 166.171875 Z M 153.859375 162.476562 C 153.859375 162.476562 153.859375 162.597656 153.859375 162.476562 C 153.859375 162.597656 153.859375 162.597656 153.859375 162.597656 C 153.859375 162.597656 153.859375 162.597656 153.859375 162.476562 Z M 149.6875 162.476562 C 149.6875 162.476562 149.6875 162.359375 149.6875 162.238281 C 149.6875 162.121094 149.808594 161.882812 149.808594 161.761719 L 149.925781 161.523438 L 150.046875 161.285156 C 150.164062 161.167969 150.285156 161.046875 150.402344 160.929688 L 150.523438 160.929688 C 150.402344 161.046875 150.523438 160.929688 150.640625 160.929688 C 150.761719 160.808594 151 160.808594 151.117188 160.691406 C 151.117188 160.691406 150.761719 160.808594 151 160.691406 L 151.238281 160.570312 L 151.476562 160.570312 C 151.476562 160.570312 151.476562 160.570312 151.59375 160.570312 C 151.59375 160.570312 151.714844 160.570312 151.714844 160.570312 L 152.191406 160.570312 L 152.785156 160.691406 C 153.023438 160.808594 153.023438 160.808594 153.023438 160.808594 L 153.144531 160.929688 C 153.144531 160.929688 153.144531 160.929688 153.261719 161.046875 L 153.621094 161.40625 C 153.621094 161.523438 153.738281 161.523438 153.738281 161.644531 C 153.738281 161.761719 153.859375 161.761719 153.859375 161.882812 C 153.859375 162 153.976562 162.121094 153.976562 162.238281 C 153.976562 162.359375 153.859375 162.476562 153.859375 162.597656 C 153.859375 162.714844 153.859375 162.714844 153.859375 162.835938 C 153.859375 162.953125 153.738281 163.191406 153.738281 163.3125 C 153.738281 163.3125 153.738281 163.3125 153.738281 163.429688 C 153.621094 163.550781 153.5 163.789062 153.5 163.90625 C 153.5 163.90625 153.382812 164.027344 153.382812 164.027344 C 153.382812 164.027344 153.261719 164.144531 153.261719 164.144531 C 153.144531 164.265625 153.144531 164.265625 153.261719 164.144531 C 153.144531 164.265625 153.023438 164.265625 153.023438 164.382812 L 152.90625 164.503906 L 151.953125 164.742188 C 151.832031 164.742188 151.832031 164.742188 151.714844 164.742188 L 151.238281 164.742188 L 151 164.621094 L 150.761719 164.503906 C 150.523438 164.503906 150.878906 164.503906 150.878906 164.503906 C 150.878906 164.503906 150.523438 164.265625 150.523438 164.265625 L 150.285156 164.144531 C 150.285156 164.144531 150.046875 163.90625 149.925781 163.789062 L 149.808594 163.550781 L 149.925781 163.429688 C 149.925781 163.3125 149.808594 163.074219 149.808594 162.953125 L 149.808594 162.714844 C 149.6875 162.714844 149.6875 162.597656 149.6875 162.476562 Z M 149.6875 162.476562 " fill-opacity="1" fill-rule="nonzero"/><path fill="#000000" d="M 151.953125 164.742188 C 151.953125 164.621094 151.714844 164.742188 151.953125 164.742188 Z M 151.953125 164.742188 " fill-opacity="1" fill-rule="nonzero"/><path fill="#000000" d="M 149.6875 162.476562 C 149.808594 162.121094 149.6875 162.359375 149.6875 162.476562 Z M 149.6875 162.476562 " fill-opacity="1" fill-rule="nonzero"/><path fill="#000000" d="M 205.066406 198.824219 C 203.875 197.394531 201.730469 199.539062 202.921875 200.96875 L 214.472656 214.195312 L 202.921875 227.421875 C 201.613281 228.851562 203.753906 230.996094 205.066406 229.566406 L 217.570312 215.269531 C 218.164062 214.671875 218.164062 213.71875 217.570312 213.121094 Z M 205.066406 198.824219 " fill-opacity="1" fill-rule="nonzero"/><path fill="#000000" d="M 170.054688 198.824219 L 157.667969 213.121094 C 157.074219 213.71875 157.074219 214.671875 157.667969 215.269531 L 170.054688 229.566406 C 171.363281 230.996094 173.386719 228.851562 172.195312 227.421875 L 160.644531 214.195312 L 172.195312 200.96875 C 173.507812 199.539062 171.363281 197.394531 170.054688 198.824219 Z M 170.054688 198.824219 " fill-opacity="1" fill-rule="nonzero"/><path fill="#000000" d="M 193.394531 199.0625 L 181.007812 224.085938 L 179.222656 227.660156 C 178.390625 229.328125 180.890625 230.878906 181.84375 229.210938 L 194.347656 204.183594 L 196.132812 200.609375 C 196.730469 198.941406 194.226562 197.394531 193.394531 199.0625 Z M 193.394531 199.0625 " fill-opacity="1" fill-rule="nonzero"/><g transform="matrix(1, 0, 0, 1, 69, 133)"><g clip-path="url(#adccc7c7cc)"><g fill="#000000" fill-opacity="1"><g transform="translate(1.400506, 118.006719)"><g><path d="M 24.359375 -27.234375 C 24.359375 -24.441406 24.335938 -21.453125 24.296875 -18.265625 C 24.253906 -15.078125 24.492188 -11.957031 25.015625 -8.90625 C 25.535156 -5.851562 26.644531 -3.082031 28.34375 -0.59375 C 30.050781 1.894531 32.695312 3.882812 36.28125 5.375 L 35.625 7.078125 C 31.601562 5.410156 28.523438 3.3125 26.390625 0.78125 C 24.253906 -1.75 22.75 -4.5625 21.875 -7.65625 C 21 -10.757812 20.472656 -13.988281 20.296875 -17.34375 C 20.117188 -20.707031 20.03125 -24.003906 20.03125 -27.234375 C 20.03125 -34.578125 19.046875 -39.753906 17.078125 -42.765625 C 15.117188 -45.773438 11.609375 -47.453125 6.546875 -47.796875 L 6.546875 -49.109375 C 11.609375 -49.460938 15.117188 -51.144531 17.078125 -54.15625 C 19.046875 -57.164062 20.03125 -62.335938 20.03125 -69.671875 C 20.03125 -72.992188 20.117188 -76.222656 20.296875 -79.359375 C 20.472656 -82.503906 21 -85.515625 21.875 -88.390625 C 22.75 -91.273438 24.253906 -93.894531 26.390625 -96.25 C 28.523438 -98.613281 31.601562 -100.625 35.625 -102.28125 L 36.28125 -100.578125 C 32.695312 -99.097656 30.050781 -97.203125 28.34375 -94.890625 C 26.644531 -92.578125 25.535156 -90 25.015625 -87.15625 C 24.492188 -84.320312 24.253906 -81.394531 24.296875 -78.375 C 24.335938 -75.363281 24.359375 -72.460938 24.359375 -69.671875 C 24.359375 -64.609375 23.789062 -60.175781 22.65625 -56.375 C 21.519531 -52.582031 18.769531 -49.941406 14.40625 -48.453125 C 18.769531 -46.972656 21.519531 -44.351562 22.65625 -40.59375 C 23.789062 -36.84375 24.359375 -32.390625 24.359375 -27.234375 Z M 24.359375 -27.234375 "/></g></g></g><g fill="#000000" fill-opacity="1"><g transform="translate(39.649964, 118.006719)"><g/></g></g><g fill="#000000" fill-opacity="1"><g transform="translate(92.034707, 118.006719)"><g/></g></g><g fill="#000000" fill-opacity="1"><g transform="translate(144.419451, 118.006719)"><g/></g></g><g fill="#000000" fill-opacity="1"><g transform="translate(196.813818, 118.006719)"><g><path d="M 18.203125 -69.671875 C 18.203125 -62.335938 19.179688 -57.164062 21.140625 -54.15625 C 23.109375 -51.144531 26.625 -49.460938 31.6875 -49.109375 L 31.6875 -47.796875 C 26.625 -47.453125 23.109375 -45.773438 21.140625 -42.765625 C 19.179688 -39.753906 18.203125 -34.578125 18.203125 -27.234375 C 18.203125 -24.003906 18.113281 -20.707031 17.9375 -17.34375 C 17.769531 -13.988281 17.25 -10.757812 16.375 -7.65625 C 15.5 -4.5625 13.988281 -1.75 11.84375 0.78125 C 9.707031 3.3125 6.632812 5.410156 2.625 7.078125 L 1.96875 5.375 C 5.539062 3.882812 8.175781 1.894531 9.875 -0.59375 C 11.582031 -3.082031 12.695312 -5.851562 13.21875 -8.90625 C 13.75 -11.957031 13.988281 -15.078125 13.9375 -18.265625 C 13.894531 -21.453125 13.875 -24.441406 13.875 -27.234375 C 13.875 -32.390625 14.460938 -36.84375 15.640625 -40.59375 C 16.828125 -44.351562 19.5625 -46.972656 23.84375 -48.453125 C 19.5625 -49.941406 16.828125 -52.582031 15.640625 -56.375 C 14.460938 -60.175781 13.875 -64.609375 13.875 -69.671875 C 13.875 -72.460938 13.894531 -75.363281 13.9375 -78.375 C 13.988281 -81.394531 13.75 -84.320312 13.21875 -87.15625 C 12.695312 -90 11.582031 -92.578125 9.875 -94.890625 C 8.175781 -97.203125 5.539062 -99.097656 1.96875 -100.578125 L 2.625 -102.28125 C 6.632812 -100.625 9.707031 -98.613281 11.84375 -96.25 C 13.988281 -93.894531 15.5 -91.273438 16.375 -88.390625 C 17.25 -85.515625 17.769531 -82.503906 17.9375 -79.359375 C 18.113281 -76.222656 18.203125 -72.992188 18.203125 -69.671875 Z M 18.203125 -69.671875 "/></g></g></g></g></g><g fill="#000000" fill-opacity="1"><g transform="translate(112.624991, 303.99833)"><g><path d="M 15.171875 -18.484375 L 15.359375 -18.140625 C 15.390625 -18.015625 15.40625 -17.894531 15.40625 -17.78125 C 15.425781 -17.644531 15.425781 -17.519531 15.40625 -17.40625 C 15.382812 -17.289062 15.347656 -17.171875 15.296875 -17.046875 C 15.234375 -16.929688 15.164062 -16.828125 15.09375 -16.734375 C 15.007812 -16.628906 14.921875 -16.539062 14.828125 -16.46875 C 14.722656 -16.382812 14.613281 -16.328125 14.5 -16.296875 C 14.382812 -16.234375 14.269531 -16.191406 14.15625 -16.171875 C 14.03125 -16.148438 13.898438 -16.148438 13.765625 -16.171875 C 13.648438 -16.191406 13.535156 -16.222656 13.421875 -16.265625 C 13.304688 -16.296875 13.195312 -16.351562 13.09375 -16.4375 L 12.796875 -16.671875 C 12.765625 -16.710938 12.726562 -16.757812 12.6875 -16.8125 C 12.644531 -16.875 12.613281 -16.9375 12.59375 -17 C 12.4375 -17.289062 12.175781 -17.617188 11.8125 -17.984375 C 11.414062 -18.378906 10.710938 -18.578125 9.703125 -18.578125 C 9.234375 -18.578125 8.765625 -18.507812 8.296875 -18.375 C 7.804688 -18.21875 7.382812 -18.007812 7.03125 -17.75 C 6.675781 -17.5 6.410156 -17.21875 6.234375 -16.90625 C 6.066406 -16.59375 5.984375 -16.234375 5.984375 -15.828125 L 5.984375 -5.890625 C 5.984375 -5.242188 6.097656 -4.765625 6.328125 -4.453125 C 6.546875 -4.140625 6.835938 -3.867188 7.203125 -3.640625 C 7.578125 -3.421875 7.976562 -3.253906 8.40625 -3.140625 C 8.832031 -3.035156 9.097656 -2.972656 9.203125 -2.953125 C 9.335938 -2.972656 9.414062 -2.984375 9.4375 -2.984375 L 9.578125 -2.984375 C 9.640625 -2.984375 9.617188 -2.972656 9.515625 -2.953125 L 9.28125 -2.953125 C 9.40625 -2.972656 9.484375 -2.984375 9.515625 -2.984375 L 18.015625 -2.984375 C 18.148438 -2.984375 18.28125 -2.972656 18.40625 -2.953125 C 18.519531 -2.941406 18.632812 -2.914062 18.75 -2.875 C 18.863281 -2.8125 18.972656 -2.742188 19.078125 -2.671875 C 19.171875 -2.585938 19.257812 -2.5 19.34375 -2.40625 C 19.414062 -2.300781 19.484375 -2.191406 19.546875 -2.078125 C 19.578125 -1.960938 19.601562 -1.847656 19.625 -1.734375 C 19.644531 -1.648438 19.65625 -1.570312 19.65625 -1.5 L 19.65625 -1.375 C 19.632812 -1.238281 19.609375 -1.113281 19.578125 -1 C 19.535156 -0.882812 19.484375 -0.773438 19.421875 -0.671875 C 19.347656 -0.554688 19.257812 -0.457031 19.15625 -0.375 C 19.082031 -0.300781 18.988281 -0.234375 18.875 -0.171875 C 18.75 -0.117188 18.628906 -0.0703125 18.515625 -0.03125 C 18.453125 -0.0078125 18.394531 0 18.34375 0 L 18.140625 0 C 16.316406 0 13.59375 -0.0078125 9.96875 -0.03125 C 9.84375 -0.0078125 9.769531 0 9.75 0 L 9.578125 0 C 9.554688 0 9.554688 0 9.578125 0 C 9.597656 0 9.617188 0 9.640625 0 C 9.710938 0 9.78125 -0.0078125 9.84375 -0.03125 C 9.726562 -0.0078125 9.648438 0 9.609375 0 L 9.3125 0 C 8.789062 -0.0195312 8.207031 -0.109375 7.5625 -0.265625 C 6.914062 -0.421875 6.269531 -0.691406 5.625 -1.078125 C 4.9375 -1.515625 4.320312 -2.140625 3.78125 -2.953125 C 3.25 -3.773438 2.984375 -4.753906 2.984375 -5.890625 L 2.984375 -15.828125 C 2.984375 -16.742188 3.207031 -17.582031 3.65625 -18.34375 C 4.09375 -19.082031 4.632812 -19.6875 5.28125 -20.15625 C 5.914062 -20.644531 6.617188 -21 7.390625 -21.21875 C 8.148438 -21.445312 8.921875 -21.5625 9.703125 -21.5625 C 11.296875 -21.5625 12.546875 -21.179688 13.453125 -20.421875 C 14.347656 -19.660156 14.921875 -19.015625 15.171875 -18.484375 Z M 15.171875 -18.484375 "/></g></g></g><g fill="#000000" fill-opacity="1"><g transform="translate(131.221238, 303.99833)"><g><path d="M 13.65625 -20.1875 C 14.175781 -19.78125 14.59375 -19.332031 14.90625 -18.84375 C 15.238281 -18.351562 15.40625 -17.796875 15.40625 -17.171875 L 15.40625 -4.78125 C 15.40625 -4.09375 15.238281 -3.4375 14.90625 -2.8125 C 14.59375 -2.207031 14.15625 -1.691406 13.59375 -1.265625 C 13.050781 -0.847656 12.425781 -0.535156 11.71875 -0.328125 C 11 -0.109375 10.21875 0 9.375 0 C 8.707031 0 8.023438 -0.0664062 7.328125 -0.203125 C 6.640625 -0.359375 5.992188 -0.625 5.390625 -1 C 4.785156 -1.351562 4.269531 -1.859375 3.84375 -2.515625 C 3.40625 -3.179688 3.1875 -3.9375 3.1875 -4.78125 L 3.1875 -17.171875 C 3.1875 -17.847656 3.375 -18.472656 3.75 -19.046875 C 4.101562 -19.628906 4.5625 -20.109375 5.125 -20.484375 C 5.675781 -20.828125 6.300781 -21.097656 7 -21.296875 C 7.707031 -21.472656 8.46875 -21.5625 9.28125 -21.5625 C 10.207031 -21.5625 11.039062 -21.4375 11.78125 -21.1875 C 12.519531 -20.925781 13.144531 -20.59375 13.65625 -20.1875 Z M 6.765625 -17.953125 C 6.515625 -17.796875 6.359375 -17.648438 6.296875 -17.515625 C 6.222656 -17.398438 6.1875 -17.285156 6.1875 -17.171875 L 6.1875 -4.78125 C 6.1875 -4.445312 6.242188 -4.203125 6.359375 -4.046875 C 6.472656 -3.890625 6.664062 -3.722656 6.9375 -3.546875 C 7.238281 -3.367188 7.601562 -3.234375 8.03125 -3.140625 C 8.457031 -3.035156 8.90625 -2.984375 9.375 -2.984375 C 9.957031 -2.984375 10.445312 -3.050781 10.84375 -3.1875 C 11.25 -3.3125 11.5625 -3.460938 11.78125 -3.640625 C 12.007812 -3.804688 12.175781 -3.976562 12.28125 -4.15625 C 12.375 -4.351562 12.421875 -4.5625 12.421875 -4.78125 L 12.421875 -17.171875 C 12.421875 -17.054688 12.382812 -17.082031 12.3125 -17.25 C 12.25 -17.445312 12.09375 -17.644531 11.84375 -17.84375 C 11.582031 -18.039062 11.25 -18.207031 10.84375 -18.34375 C 10.414062 -18.5 9.894531 -18.578125 9.28125 -18.578125 C 8.695312 -18.578125 8.191406 -18.519531 7.765625 -18.40625 C 7.335938 -18.257812 7.003906 -18.109375 6.765625 -17.953125 Z M 6.765625 -17.953125 "/></g></g></g><g fill="#000000" fill-opacity="1"><g transform="translate(149.817486, 303.99833)"><g><path d="M 4.515625 -21.625 L 11.515625 -21.625 C 11.628906 -21.625 11.707031 -21.613281 11.75 -21.59375 L 11.890625 -21.59375 C 12.515625 -21.4375 13.082031 -21.203125 13.59375 -20.890625 C 14.125 -20.578125 14.554688 -20.195312 14.890625 -19.75 C 15.210938 -19.320312 15.460938 -18.863281 15.640625 -18.375 C 15.816406 -17.882812 15.945312 -17.425781 16.03125 -17 C 16.050781 -16.875 16.0625 -16.796875 16.0625 -16.765625 L 16.0625 -16.609375 C 16.0625 -13.992188 16.050781 -10.0625 16.03125 -4.8125 C 16.050781 -4.6875 16.0625 -4.609375 16.0625 -4.578125 L 16.0625 -4.421875 C 15.957031 -3.617188 15.726562 -2.914062 15.375 -2.3125 C 15.03125 -1.6875 14.59375 -1.195312 14.0625 -0.84375 C 13.53125 -0.519531 12.984375 -0.304688 12.421875 -0.203125 C 11.878906 -0.0859375 11.363281 -0.03125 10.875 -0.03125 C 9.519531 -0.0507812 7.488281 -0.0625 4.78125 -0.0625 C 4.65625 -0.0390625 4.535156 -0.0390625 4.421875 -0.0625 C 4.285156 -0.0625 4.160156 -0.0820312 4.046875 -0.125 C 3.929688 -0.15625 3.820312 -0.210938 3.71875 -0.296875 C 3.601562 -0.347656 3.503906 -0.425781 3.421875 -0.53125 C 3.347656 -0.601562 3.28125 -0.703125 3.21875 -0.828125 C 3.164062 -0.941406 3.117188 -1.054688 3.078125 -1.171875 L 3.015625 -1.34375 L 3.015625 -1.53125 C 3.035156 -5.75 3.046875 -12.054688 3.046875 -20.453125 C 3.085938 -20.566406 3.132812 -20.679688 3.1875 -20.796875 C 3.25 -20.921875 3.320312 -21.03125 3.40625 -21.125 C 3.476562 -21.21875 3.570312 -21.296875 3.6875 -21.359375 C 3.789062 -21.421875 3.898438 -21.476562 4.015625 -21.53125 C 4.078125 -21.550781 4.164062 -21.570312 4.28125 -21.59375 C 4.375 -21.613281 4.410156 -21.625 4.390625 -21.625 L 4.359375 -21.625 C 4.347656 -21.625 4.34375 -21.625 4.34375 -21.625 C 4.351562 -21.625 4.367188 -21.625 4.390625 -21.625 Z M 6 -3.046875 L 10.875 -3.046875 C 11.207031 -3.046875 11.507812 -3.078125 11.78125 -3.140625 C 12.050781 -3.191406 12.265625 -3.269531 12.421875 -3.375 C 12.554688 -3.46875 12.679688 -3.601562 12.796875 -3.78125 C 12.921875 -3.957031 13.007812 -4.269531 13.0625 -4.71875 L 13.0625 -16.40625 C 13.007812 -16.738281 12.929688 -17.03125 12.828125 -17.28125 C 12.734375 -17.539062 12.628906 -17.757812 12.515625 -17.9375 C 12.390625 -18.070312 12.242188 -18.195312 12.078125 -18.3125 C 11.898438 -18.445312 11.65625 -18.554688 11.34375 -18.640625 L 6 -18.640625 Z M 6 -3.046875 "/></g></g></g><g fill="#000000" fill-opacity="1"><g transform="translate(169.087298, 303.99833)"><g><path d="M 4.515625 -21.6875 C 5.941406 -21.664062 8.789062 -21.65625 13.0625 -21.65625 C 13.195312 -21.675781 13.328125 -21.675781 13.453125 -21.65625 C 13.566406 -21.632812 13.679688 -21.59375 13.796875 -21.53125 C 13.910156 -21.488281 14.019531 -21.429688 14.125 -21.359375 C 14.21875 -21.273438 14.304688 -21.1875 14.390625 -21.09375 C 14.460938 -21 14.53125 -20.890625 14.59375 -20.765625 L 14.703125 -20.421875 C 14.722656 -20.304688 14.722656 -20.179688 14.703125 -20.046875 C 14.679688 -19.921875 14.65625 -19.800781 14.625 -19.6875 C 14.582031 -19.570312 14.53125 -19.457031 14.46875 -19.34375 C 14.394531 -19.238281 14.304688 -19.148438 14.203125 -19.078125 C 14.128906 -18.972656 14.035156 -18.90625 13.921875 -18.875 C 13.796875 -18.8125 13.675781 -18.757812 13.5625 -18.71875 C 13.507812 -18.695312 13.453125 -18.6875 13.390625 -18.6875 C 13.328125 -18.664062 13.257812 -18.65625 13.1875 -18.65625 L 6 -18.65625 L 6 -12.515625 L 11.390625 -12.515625 C 11.785156 -12.515625 12.128906 -12.367188 12.421875 -12.078125 C 12.734375 -11.765625 12.890625 -11.410156 12.890625 -11.015625 C 12.890625 -10.628906 12.734375 -10.28125 12.421875 -9.96875 C 12.128906 -9.65625 11.785156 -9.503906 11.390625 -9.515625 L 6 -9.515625 L 6 -3.078125 L 13.15625 -3.078125 C 13.269531 -3.078125 13.394531 -3.066406 13.53125 -3.046875 C 13.65625 -3.046875 13.773438 -3.015625 13.890625 -2.953125 C 14.003906 -2.921875 14.109375 -2.863281 14.203125 -2.78125 C 14.304688 -2.707031 14.394531 -2.617188 14.46875 -2.515625 C 14.550781 -2.421875 14.613281 -2.316406 14.65625 -2.203125 C 14.707031 -2.078125 14.742188 -1.957031 14.765625 -1.84375 C 14.785156 -1.75 14.796875 -1.660156 14.796875 -1.578125 L 14.796875 -1.46875 C 14.773438 -1.332031 14.742188 -1.203125 14.703125 -1.078125 C 14.671875 -0.960938 14.613281 -0.859375 14.53125 -0.765625 C 14.46875 -0.660156 14.390625 -0.5625 14.296875 -0.46875 C 14.203125 -0.394531 14.09375 -0.328125 13.96875 -0.265625 C 13.875 -0.222656 13.769531 -0.175781 13.65625 -0.125 C 13.59375 -0.101562 13.523438 -0.09375 13.453125 -0.09375 L 13.265625 -0.09375 C 11.378906 -0.09375 8.550781 -0.101562 4.78125 -0.125 C 4.65625 -0.101562 4.535156 -0.09375 4.421875 -0.09375 C 4.285156 -0.113281 4.160156 -0.140625 4.046875 -0.171875 C 3.929688 -0.210938 3.820312 -0.265625 3.71875 -0.328125 C 3.601562 -0.398438 3.503906 -0.476562 3.421875 -0.5625 C 3.347656 -0.65625 3.28125 -0.757812 3.21875 -0.875 C 3.164062 -1 3.117188 -1.109375 3.078125 -1.203125 C 3.054688 -1.265625 3.035156 -1.332031 3.015625 -1.40625 L 3.015625 -1.578125 C 3.035156 -5.773438 3.046875 -12.085938 3.046875 -20.515625 C 3.085938 -20.628906 3.132812 -20.742188 3.1875 -20.859375 C 3.25 -20.972656 3.320312 -21.070312 3.40625 -21.15625 C 3.476562 -21.25 3.570312 -21.328125 3.6875 -21.390625 C 3.789062 -21.460938 3.898438 -21.53125 4.015625 -21.59375 C 4.078125 -21.613281 4.164062 -21.632812 4.28125 -21.65625 C 4.375 -21.675781 4.410156 -21.6875 4.390625 -21.6875 L 4.359375 -21.6875 C 4.347656 -21.664062 4.359375 -21.65625 4.390625 -21.65625 C 4.453125 -21.675781 4.492188 -21.6875 4.515625 -21.6875 Z M 4.515625 -21.6875 "/></g></g></g><g fill="#000000" fill-opacity="1"><g transform="translate(187.156408, 303.99833)"><g><path d="M 16 -37.03125 C 16.113281 -36.988281 16.226562 -36.929688 16.34375 -36.859375 C 16.445312 -36.796875 16.535156 -36.71875 16.609375 -36.625 C 16.710938 -36.539062 16.78125 -36.441406 16.8125 -36.328125 C 16.875 -36.210938 16.925781 -36.097656 16.96875 -35.984375 C 16.988281 -35.921875 17 -35.859375 17 -35.796875 C 17.007812 -35.742188 17.015625 -35.675781 17.015625 -35.59375 C 16.984375 -28.09375 16.945312 -16.832031 16.90625 -1.8125 L 16.90625 -1.46875 C 16.90625 -1.332031 16.882812 -1.203125 16.84375 -1.078125 C 16.800781 -0.960938 16.742188 -0.859375 16.671875 -0.765625 C 16.609375 -0.648438 16.53125 -0.550781 16.4375 -0.46875 C 16.351562 -0.394531 16.253906 -0.328125 16.140625 -0.265625 C 16.023438 -0.203125 15.910156 -0.15625 15.796875 -0.125 L 15.609375 -0.0625 L 13.453125 -0.0625 C 13.328125 -0.0625 13.195312 -0.0703125 13.0625 -0.09375 L 12.71875 -0.203125 C 12.613281 -0.265625 12.515625 -0.332031 12.421875 -0.40625 C 12.328125 -0.507812 12.238281 -0.609375 12.15625 -0.703125 C 12.113281 -0.742188 12.078125 -0.789062 12.046875 -0.84375 L 11.984375 -1.03125 C 10.648438 -4.40625 8.65625 -9.484375 6 -16.265625 L 6 15.265625 C 5.988281 15.378906 5.953125 15.492188 5.890625 15.609375 C 5.847656 15.734375 5.789062 15.84375 5.71875 15.9375 C 5.632812 16.03125 5.546875 16.117188 5.453125 16.203125 C 5.347656 16.273438 5.238281 16.34375 5.125 16.40625 C 5.007812 16.445312 4.894531 16.476562 4.78125 16.5 C 4.695312 16.519531 4.609375 16.53125 4.515625 16.53125 L 4.390625 16.53125 C 4.273438 16.507812 4.160156 16.476562 4.046875 16.4375 C 3.929688 16.394531 3.8125 16.335938 3.6875 16.265625 C 3.59375 16.203125 3.5 16.125 3.40625 16.03125 C 3.320312 15.945312 3.257812 15.847656 3.21875 15.734375 C 3.164062 15.617188 3.117188 15.5 3.078125 15.375 L 3.015625 15.203125 L 3.015625 15 C 3.035156 7.25 3.046875 -4.367188 3.046875 -19.859375 C 3.023438 -19.992188 3.023438 -20.125 3.046875 -20.25 C 3.046875 -20.382812 3.066406 -20.507812 3.109375 -20.625 C 3.148438 -20.738281 3.195312 -20.847656 3.25 -20.953125 C 3.332031 -21.066406 3.421875 -21.160156 3.515625 -21.234375 C 3.597656 -21.316406 3.695312 -21.390625 3.8125 -21.453125 C 3.925781 -21.503906 4.039062 -21.550781 4.15625 -21.59375 C 4.21875 -21.613281 4.28125 -21.625 4.34375 -21.625 C 4.394531 -21.644531 4.453125 -21.65625 4.515625 -21.65625 L 6.03125 -21.65625 C 6.15625 -21.65625 6.273438 -21.632812 6.390625 -21.59375 C 6.523438 -21.570312 6.640625 -21.539062 6.734375 -21.5 C 6.859375 -21.445312 6.96875 -21.367188 7.0625 -21.265625 L 7.328125 -21 C 7.367188 -20.96875 7.394531 -20.921875 7.40625 -20.859375 C 7.445312 -20.796875 7.476562 -20.738281 7.5 -20.6875 C 8.925781 -17.03125 11.066406 -11.539062 13.921875 -4.21875 C 13.953125 -11.132812 13.988281 -21.503906 14.03125 -35.328125 L 14.03125 -35.71875 C 14.03125 -35.832031 14.050781 -35.957031 14.09375 -36.09375 C 14.132812 -36.207031 14.179688 -36.316406 14.234375 -36.421875 C 14.316406 -36.535156 14.394531 -36.628906 14.46875 -36.703125 C 14.570312 -36.785156 14.679688 -36.859375 14.796875 -36.921875 C 14.890625 -36.972656 15 -37.019531 15.125 -37.0625 C 15.175781 -37.101562 15.269531 -37.125 15.40625 -37.125 C 15.445312 -37.125 15.484375 -37.125 15.515625 -37.125 C 15.546875 -37.125 15.550781 -37.125 15.53125 -37.125 L 15.5 -37.125 C 15.476562 -37.125 15.484375 -37.125 15.515625 -37.125 C 15.546875 -37.125 15.597656 -37.125 15.671875 -37.125 C 15.804688 -37.101562 15.914062 -37.070312 16 -37.03125 Z M 16 -37.03125 "/></g></g></g><g fill="#000000" fill-opacity="1"><g transform="translate(206.953358, 303.99833)"><g><path d="M 4.515625 -21.6875 C 5.941406 -21.664062 8.789062 -21.65625 13.0625 -21.65625 C 13.195312 -21.675781 13.328125 -21.675781 13.453125 -21.65625 C 13.566406 -21.632812 13.679688 -21.59375 13.796875 -21.53125 C 13.910156 -21.488281 14.019531 -21.429688 14.125 -21.359375 C 14.21875 -21.273438 14.304688 -21.1875 14.390625 -21.09375 C 14.460938 -21 14.53125 -20.890625 14.59375 -20.765625 L 14.703125 -20.421875 C 14.722656 -20.304688 14.722656 -20.179688 14.703125 -20.046875 C 14.679688 -19.921875 14.65625 -19.800781 14.625 -19.6875 C 14.582031 -19.570312 14.53125 -19.457031 14.46875 -19.34375 C 14.394531 -19.238281 14.304688 -19.148438 14.203125 -19.078125 C 14.128906 -18.972656 14.035156 -18.90625 13.921875 -18.875 C 13.796875 -18.8125 13.675781 -18.757812 13.5625 -18.71875 C 13.507812 -18.695312 13.453125 -18.6875 13.390625 -18.6875 C 13.328125 -18.664062 13.257812 -18.65625 13.1875 -18.65625 L 6 -18.65625 L 6 -12.515625 L 11.390625 -12.515625 C 11.785156 -12.515625 12.128906 -12.367188 12.421875 -12.078125 C 12.734375 -11.765625 12.890625 -11.410156 12.890625 -11.015625 C 12.890625 -10.628906 12.734375 -10.28125 12.421875 -9.96875 C 12.128906 -9.65625 11.785156 -9.503906 11.390625 -9.515625 L 6 -9.515625 L 6 -3.078125 L 13.15625 -3.078125 C 13.269531 -3.078125 13.394531 -3.066406 13.53125 -3.046875 C 13.65625 -3.046875 13.773438 -3.015625 13.890625 -2.953125 C 14.003906 -2.921875 14.109375 -2.863281 14.203125 -2.78125 C 14.304688 -2.707031 14.394531 -2.617188 14.46875 -2.515625 C 14.550781 -2.421875 14.613281 -2.316406 14.65625 -2.203125 C 14.707031 -2.078125 14.742188 -1.957031 14.765625 -1.84375 C 14.785156 -1.75 14.796875 -1.660156 14.796875 -1.578125 L 14.796875 -1.46875 C 14.773438 -1.332031 14.742188 -1.203125 14.703125 -1.078125 C 14.671875 -0.960938 14.613281 -0.859375 14.53125 -0.765625 C 14.46875 -0.660156 14.390625 -0.5625 14.296875 -0.46875 C 14.203125 -0.394531 14.09375 -0.328125 13.96875 -0.265625 C 13.875 -0.222656 13.769531 -0.175781 13.65625 -0.125 C 13.59375 -0.101562 13.523438 -0.09375 13.453125 -0.09375 L 13.265625 -0.09375 C 11.378906 -0.09375 8.550781 -0.101562 4.78125 -0.125 C 4.65625 -0.101562 4.535156 -0.09375 4.421875 -0.09375 C 4.285156 -0.113281 4.160156 -0.140625 4.046875 -0.171875 C 3.929688 -0.210938 3.820312 -0.265625 3.71875 -0.328125 C 3.601562 -0.398438 3.503906 -0.476562 3.421875 -0.5625 C 3.347656 -0.65625 3.28125 -0.757812 3.21875 -0.875 C 3.164062 -1 3.117188 -1.109375 3.078125 -1.203125 C 3.054688 -1.265625 3.035156 -1.332031 3.015625 -1.40625 L 3.015625 -1.578125 C 3.035156 -5.773438 3.046875 -12.085938 3.046875 -20.515625 C 3.085938 -20.628906 3.132812 -20.742188 3.1875 -20.859375 C 3.25 -20.972656 3.320312 -21.070312 3.40625 -21.15625 C 3.476562 -21.25 3.570312 -21.328125 3.6875 -21.390625 C 3.789062 -21.460938 3.898438 -21.53125 4.015625 -21.59375 C 4.078125 -21.613281 4.164062 -21.632812 4.28125 -21.65625 C 4.375 -21.675781 4.410156 -21.6875 4.390625 -21.6875 L 4.359375 -21.6875 C 4.347656 -21.664062 4.359375 -21.65625 4.390625 -21.65625 C 4.453125 -21.675781 4.492188 -21.6875 4.515625 -21.6875 Z M 4.515625 -21.6875 "/></g></g></g><g fill="#000000" fill-opacity="1"><g transform="translate(225.022468, 303.99833)"><g><path d="M 14.125 -19.15625 C 14.195312 -19.039062 14.253906 -18.9375 14.296875 -18.84375 C 14.359375 -18.71875 14.398438 -18.585938 14.421875 -18.453125 C 14.429688 -18.335938 14.429688 -18.222656 14.421875 -18.109375 C 14.398438 -17.972656 14.367188 -17.84375 14.328125 -17.71875 C 14.285156 -17.601562 14.226562 -17.5 14.15625 -17.40625 C 14.070312 -17.300781 13.984375 -17.210938 13.890625 -17.140625 C 13.804688 -17.046875 13.707031 -16.976562 13.59375 -16.9375 C 13.476562 -16.875 13.363281 -16.820312 13.25 -16.78125 C 13.125 -16.769531 12.992188 -16.765625 12.859375 -16.765625 L 12.515625 -16.8125 C 12.378906 -16.851562 12.257812 -16.914062 12.15625 -17 C 12.0625 -17.050781 11.960938 -17.117188 11.859375 -17.203125 C 11.804688 -17.234375 11.769531 -17.28125 11.75 -17.34375 C 11.707031 -17.40625 11.664062 -17.453125 11.625 -17.484375 C 11.351562 -17.953125 11.070312 -18.285156 10.78125 -18.484375 C 10.488281 -18.679688 9.851562 -18.78125 8.875 -18.78125 C 8.09375 -18.78125 7.476562 -18.679688 7.03125 -18.484375 C 6.582031 -18.285156 6.238281 -18.0625 6 -17.8125 C 5.769531 -17.539062 5.609375 -17.25 5.515625 -16.9375 C 5.410156 -16.644531 5.378906 -16.351562 5.421875 -16.0625 C 5.441406 -16 5.539062 -15.84375 5.71875 -15.59375 C 5.894531 -15.351562 6.195312 -15.078125 6.625 -14.765625 C 7.050781 -14.453125 7.546875 -14.117188 8.109375 -13.765625 C 8.703125 -13.429688 9.300781 -13.09375 9.90625 -12.75 C 10.53125 -12.394531 11.15625 -12.03125 11.78125 -11.65625 C 12.40625 -11.289062 12.976562 -10.882812 13.5 -10.4375 C 14.03125 -10 14.5 -9.488281 14.90625 -8.90625 C 15.320312 -8.34375 15.53125 -7.679688 15.53125 -6.921875 L 15.53125 -6.828125 C 15.550781 -6.203125 15.484375 -5.597656 15.328125 -5.015625 C 15.171875 -4.421875 14.9375 -3.875 14.625 -3.375 C 14.070312 -2.4375 13.316406 -1.671875 12.359375 -1.078125 C 11.390625 -0.492188 10.335938 -0.203125 9.203125 -0.203125 C 8.398438 -0.203125 7.40625 -0.398438 6.21875 -0.796875 C 5 -1.179688 3.953125 -2.050781 3.078125 -3.40625 C 2.992188 -3.519531 2.9375 -3.632812 2.90625 -3.75 C 2.84375 -3.863281 2.800781 -3.984375 2.78125 -4.109375 L 2.78125 -4.484375 C 2.800781 -4.597656 2.832031 -4.710938 2.875 -4.828125 C 2.925781 -4.953125 2.992188 -5.0625 3.078125 -5.15625 C 3.140625 -5.25 3.21875 -5.347656 3.3125 -5.453125 C 3.40625 -5.523438 3.515625 -5.582031 3.640625 -5.625 C 3.753906 -5.6875 3.867188 -5.726562 3.984375 -5.75 C 4.097656 -5.78125 4.222656 -5.785156 4.359375 -5.765625 C 4.484375 -5.765625 4.601562 -5.75 4.71875 -5.71875 C 4.832031 -5.675781 4.941406 -5.625 5.046875 -5.5625 C 5.160156 -5.488281 5.265625 -5.410156 5.359375 -5.328125 C 5.398438 -5.296875 5.441406 -5.25 5.484375 -5.1875 C 5.515625 -5.125 5.539062 -5.078125 5.5625 -5.046875 C 6.15625 -4.160156 6.765625 -3.628906 7.390625 -3.453125 C 8.015625 -3.273438 8.617188 -3.1875 9.203125 -3.1875 C 10.117188 -3.1875 10.921875 -3.53125 11.609375 -4.21875 C 12.285156 -4.882812 12.613281 -5.632812 12.59375 -6.46875 C 12.570312 -6.59375 12.554688 -6.671875 12.546875 -6.703125 L 12.546875 -6.859375 C 12.546875 -6.953125 12.472656 -7.109375 12.328125 -7.328125 C 12.210938 -7.554688 11.960938 -7.828125 11.578125 -8.140625 C 11.203125 -8.453125 10.742188 -8.773438 10.203125 -9.109375 C 9.628906 -9.441406 9.039062 -9.785156 8.4375 -10.140625 C 7.832031 -10.492188 7.21875 -10.84375 6.59375 -11.1875 C 5.96875 -11.5625 5.378906 -11.953125 4.828125 -12.359375 C 4.285156 -12.773438 3.78125 -13.234375 3.3125 -13.734375 C 2.84375 -14.265625 2.5625 -14.898438 2.46875 -15.640625 C 2.425781 -15.878906 2.40625 -16.101562 2.40625 -16.3125 C 2.40625 -16.820312 2.484375 -17.332031 2.640625 -17.84375 C 2.847656 -18.582031 3.238281 -19.242188 3.8125 -19.828125 C 4.351562 -20.441406 5.054688 -20.921875 5.921875 -21.265625 C 6.796875 -21.617188 7.78125 -21.796875 8.875 -21.796875 C 10.207031 -21.796875 11.3125 -21.523438 12.1875 -20.984375 C 13.082031 -20.453125 13.726562 -19.84375 14.125 -19.15625 Z M 14.125 -19.15625 "/></g></g></g><g fill="#000000" fill-opacity="1"><g transform="translate(243.091577, 303.99833)"><g><path d="M 15.234375 -21.6875 C 15.347656 -21.695312 15.472656 -21.695312 15.609375 -21.6875 C 15.734375 -21.664062 15.851562 -21.625 15.96875 -21.5625 C 16.082031 -21.519531 16.191406 -21.460938 16.296875 -21.390625 C 16.390625 -21.304688 16.472656 -21.21875 16.546875 -21.125 C 16.628906 -21.03125 16.691406 -20.921875 16.734375 -20.796875 C 16.785156 -20.679688 16.820312 -20.566406 16.84375 -20.453125 C 16.863281 -20.367188 16.875 -20.28125 16.875 -20.1875 C 16.875 -20.144531 16.863281 -20.101562 16.84375 -20.0625 C 16.84375 -19.945312 16.820312 -19.832031 16.78125 -19.71875 C 16.75 -19.601562 16.691406 -19.484375 16.609375 -19.359375 C 16.554688 -19.265625 16.476562 -19.179688 16.375 -19.109375 C 16.28125 -19.003906 16.175781 -18.929688 16.0625 -18.890625 C 15.9375 -18.835938 15.828125 -18.789062 15.734375 -18.75 C 15.671875 -18.726562 15.601562 -18.71875 15.53125 -18.71875 C 15.46875 -18.695312 15.410156 -18.6875 15.359375 -18.6875 L 11.28125 -18.6875 L 11.28125 -1.34375 C 11.257812 -1.226562 11.21875 -1.113281 11.15625 -1 C 11.125 -0.882812 11.066406 -0.773438 10.984375 -0.671875 C 10.910156 -0.578125 10.820312 -0.488281 10.71875 -0.40625 C 10.625 -0.332031 10.519531 -0.273438 10.40625 -0.234375 C 10.28125 -0.171875 10.160156 -0.132812 10.046875 -0.125 C 9.972656 -0.101562 9.882812 -0.09375 9.78125 -0.09375 C 9.75 -0.09375 9.710938 -0.101562 9.671875 -0.125 C 9.554688 -0.125 9.4375 -0.140625 9.3125 -0.171875 C 9.195312 -0.210938 9.082031 -0.273438 8.96875 -0.359375 C 8.863281 -0.410156 8.773438 -0.488281 8.703125 -0.59375 C 8.609375 -0.6875 8.539062 -0.789062 8.5 -0.90625 C 8.4375 -1.019531 8.382812 -1.140625 8.34375 -1.265625 C 8.332031 -1.296875 8.316406 -1.351562 8.296875 -1.4375 L 8.296875 -18.6875 C 7.378906 -18.707031 6.007812 -18.71875 4.1875 -18.71875 C 4.050781 -18.695312 3.925781 -18.695312 3.8125 -18.71875 C 3.675781 -18.71875 3.546875 -18.738281 3.421875 -18.78125 C 3.328125 -18.820312 3.222656 -18.878906 3.109375 -18.953125 C 3.003906 -19.035156 2.914062 -19.113281 2.84375 -19.1875 C 2.75 -19.289062 2.671875 -19.398438 2.609375 -19.515625 C 2.546875 -19.628906 2.503906 -19.742188 2.484375 -19.859375 C 2.472656 -19.984375 2.46875 -20.101562 2.46875 -20.21875 L 2.46875 -20.25 C 2.46875 -20.363281 2.472656 -20.476562 2.484375 -20.59375 C 2.523438 -20.707031 2.578125 -20.828125 2.640625 -20.953125 C 2.710938 -21.066406 2.789062 -21.160156 2.875 -21.234375 C 2.945312 -21.335938 3.046875 -21.414062 3.171875 -21.46875 C 3.285156 -21.53125 3.398438 -21.582031 3.515625 -21.625 C 3.554688 -21.664062 3.613281 -21.6875 3.6875 -21.6875 C 3.75 -21.6875 3.8125 -21.691406 3.875 -21.703125 L 3.890625 -21.703125 L 3.8125 -21.703125 C 3.75 -21.691406 3.691406 -21.6875 3.640625 -21.6875 C 3.773438 -21.695312 3.851562 -21.703125 3.875 -21.703125 L 7.03125 -21.703125 C 8.84375 -21.703125 11.578125 -21.695312 15.234375 -21.6875 Z M 15.234375 -21.6875 "/></g></g></g></svg>